<?xml version="1.0" encoding="utf-8"?>
<!-- Generator: Adobe Illustrator 28.2.0, SVG Export Plug-In . SVG Version: 6.00 Build 0)  -->
<svg version="1.1" id="Layer_1" xmlns="http://www.w3.org/2000/svg" xmlns:xlink="http://www.w3.org/1999/xlink" x="0px" y="0px"
	 width="89.6px" height="97.1px" viewBox="0 0 89.6 97.1" style="enable-background:new 0 0 89.6 97.1;" xml:space="preserve">
<style type="text/css">
	.st0{fill:#0FA3F2;}
</style>
<g>
	<path class="st0" d="M89.5,22.7c-0.1-0.3-0.2-0.5-0.3-0.7c-0.5-1-1.4-1.8-2.4-2L46.4,0.4c-1-0.5-2.3-0.5-3.4,0L2.2,20.2
		c-1.3,0.6-2.1,1.9-2.2,3.3l0,49.9c0,1.5,0.9,2.8,2.2,3.5l40.7,19.7l0.1,0.1l0.2,0.1l0.3,0.2h0.2l0.2,0.1h0.2l0.1,0h0.3h0
		c0.1,0,0.2,0,0.3,0c0.1,0,0.2,0,0.4,0c0.1,0,0.3,0,0.4-0.1l0.1,0c0,0,0,0,0.1,0h0.1l0.2-0.1c0.1,0,0.2-0.1,0.3-0.1
		c0.1,0,0.1-0.1,0.2-0.1l40.9-19.8c1.3-0.6,2.2-2,2.2-3.5l0-50.5L89.5,22.7z M40.9,45.9V87L7.7,71l0-41.1L40.9,45.9z M48.6,45.9
		l14-6.8v17.4c0,2.1,1.7,3.9,3.9,3.9c2.1,0,3.9-1.7,3.9-3.9V35.4l11.6-5.6l0,41.1L48.6,87L48.6,45.9z M35,12.8l9.7-4.7l32.1,15.5
		l-9.7,4.7L35,12.8z M58.3,32.7l-13.5,6.6L12.7,23.7l13.5-6.6L58.3,32.7z"/>
</g>
</svg>
